# xmcd
#
# Track frame offsets:
# 150
# 19561
# 33929
# 58428
# 85208
# 103621
# 121747
# 143587
# 168251
# 196877
#
# Disc length: 3174 seconds
#
#
# Revision: 0
# Processed by: cddbd v1.4PL0 Copyright (c) Steve Scherf et al.
# Submitted via: FreeRIP 2.30 
#
DISCID=790c640a
DTITLE=Backsters, The - Live and Jumpin!
DYEAR=1998
DGENRE=Blues
TTITLE0=Three Times A Fool
TTITLE1=Caledonia
TTITLE2=Hold It Right There
TTITLE3=Mean Old World
TTITLE4=Further On Up The Road
TTITLE5=Later Than You Think
TTITLE6=Reconsider, Baby
TTITLE7=These Blues
TTITLE8=Tilt A Whirl
TTITLE9=Years Go Passing By
EXTD=
EXTT0=
EXTT1=
EXTT2=
EXTT3=
EXTT4=
EXTT5=
EXTT6=
EXTT7=
EXTT8=
EXTT9=
PLAYORDER=
